<?xml version="1.0" encoding="utf-8"?>
<!-- Generator: Adobe Illustrator 18.0.0, SVG Export Plug-In . SVG Version: 6.00 Build 0)  -->
<!DOCTYPE svg PUBLIC "-//W3C//DTD SVG 1.1//EN" "http://www.w3.org/Graphics/SVG/1.1/DTD/svg11.dtd">
<svg version="1.1" id="Layer_1" xmlns="http://www.w3.org/2000/svg" xmlns:xlink="http://www.w3.org/1999/xlink" x="0px" y="0px"
	 viewBox="0 0 71 71" enable-background="new 0 0 71 71" xml:space="preserve">
<g>
	<defs>
		<rect id="SVGID_1_" width="71" height="71"/>
	</defs>
	<clipPath id="SVGID_2_">
		<use xlink:href="#SVGID_1_"  overflow="visible"/>
	</clipPath>
	<path clip-path="url(#SVGID_2_)" fill="#91C961" d="M67.8,35.5c0-17.8-14.4-32.3-32.3-32.3S3.2,17.7,3.2,35.5s14.4,32.3,32.3,32.3
		S67.8,53.3,67.8,35.5 M0,35.5C0,15.9,15.9,0,35.5,0S71,15.9,71,35.5S55.1,71,35.5,71S0,55.1,0,35.5"/>
</g>
<polygon fill="#91C961" points="40.1,20.3 40.1,20.3 19,47.2 18.9,56.2 27.5,53.9 48.6,26.9 45.8,24.7 25.4,50.8 22.2,52 22.5,48.6 
	42.9,22.5 "/>
<g>
	<defs>
		<rect id="SVGID_3_" width="71" height="71"/>
	</defs>
	<clipPath id="SVGID_4_">
		<use xlink:href="#SVGID_3_"  overflow="visible"/>
	</clipPath>
	<path clip-path="url(#SVGID_4_)" fill="#91C961" d="M48.4,15.2L48.4,15.2c-1.4-1.1-5.1,0.6-5.1,0.6l-2.2,2.8l8.5,6.6l2.2-2.8
		c0,0,0.8-3.9-0.6-5.1L48.4,15.2z"/>
</g>
</svg>
