<?xml version="1.0" encoding="utf-8"?>
<!-- Generator: Adobe Illustrator 18.0.0, SVG Export Plug-In . SVG Version: 6.00 Build 0)  -->
<!DOCTYPE svg PUBLIC "-//W3C//DTD SVG 1.1//EN" "http://www.w3.org/Graphics/SVG/1.1/DTD/svg11.dtd">
<svg version="1.1" id="Layer_1" xmlns="http://www.w3.org/2000/svg" xmlns:xlink="http://www.w3.org/1999/xlink" x="0px" y="0px"
	 viewBox="0 0 71 71" enable-background="new 0 0 71 71" xml:space="preserve">
<g>
	<defs>
		<rect id="SVGID_1_" width="71" height="71"/>
	</defs>
	<clipPath id="SVGID_2_">
		<use xlink:href="#SVGID_1_"  overflow="visible"/>
	</clipPath>
	<path clip-path="url(#SVGID_2_)" fill="#91C961" d="M34.6,51.1h1.7V23.3h-1.7V51.1z M41.5,23.3l-1.7,27.9h1.7l1.7-27.9H41.5z
		 M29.4,51.1h1.7l-1.7-27.9h-1.7L29.4,51.1z M32.8,16.4c-1.7,0-1.7,1.7-1.7,1.7h8.7c0,0,0-1.7-1.7-1.7H32.8z M20.7,23.3h1.7
		l3.5,29.5H45l3.5-29.5h1.7l-3.5,31.3H24.2L20.7,23.3z M19.9,18.1c0,0-0.9,0-0.9,1.7c0,1.7,0.9,1.7,0.9,1.7h31.3c0,0,0.9,0,0.9-1.7
		c0-1.7-0.9-1.7-0.9-1.7H19.9z"/>
	<path clip-path="url(#SVGID_2_)" fill="#91C961" d="M67.8,35.5c0-17.8-14.4-32.3-32.3-32.3S3.2,17.7,3.2,35.5s14.4,32.3,32.3,32.3
		S67.8,53.3,67.8,35.5 M0,35.5C0,15.9,15.9,0,35.5,0S71,15.9,71,35.5S55.1,71,35.5,71S0,55.1,0,35.5"/>
</g>
</svg>
