<?xml version="1.0" encoding="utf-8"?>
<!-- Generator: Adobe Illustrator 18.0.0, SVG Export Plug-In . SVG Version: 6.00 Build 0)  -->
<!DOCTYPE svg PUBLIC "-//W3C//DTD SVG 1.1//EN" "http://www.w3.org/Graphics/SVG/1.1/DTD/svg11.dtd">
<svg version="1.1" id="Layer_1" xmlns="http://www.w3.org/2000/svg" xmlns:xlink="http://www.w3.org/1999/xlink" x="0px" y="0px"
	 viewBox="0 0 71 71" enable-background="new 0 0 71 71" xml:space="preserve">
<g>
	<defs>
		<rect id="SVGID_1_" width="71" height="71"/>
	</defs>
	<clipPath id="SVGID_2_">
		<use xlink:href="#SVGID_1_"  overflow="visible"/>
	</clipPath>
	<path clip-path="url(#SVGID_2_)" fill="#91C961" d="M35.9,46.3c-5.5,0-10-4.6-10-10.1c0-5.5,4.6-10,10.1-10c5.4,0,9.9,4.6,9.9,10.1
		C46,41.8,41.5,46.3,35.9,46.3 M54,32.4c-2.8-0.9-5-5.8-3.9-8.5c0.9-2.2,2-2.7,0.2-4.5c-1.4-1.4-2.9,0.5-4,1.1
		c-0.5,0.3-1.2,0.4-1.6,0.5c-2.1,0.4-7.1-1.3-7.1-6.1c0-1.3-0.5-1.8-1.9-1.8c-1.3,0-2.1,0.2-2.4,1.7c-0.3,1.3-0.6,3-1.5,3.7
		c-1.5,1.3-3.4,2.5-5.8,2.4c-1,0-2.3-1-3.4-1.7c-1.2-0.7-2-1-3.2,0.2c-1.2,1.2-0.7,2.1,0,3.2c0.7,1.1,1.9,2.4,1.7,3.4
		c-0.3,2-1.2,4-2.4,5.6c-0.6,0.9-2.3,1.1-3.6,1.3c-1.5,0.2-1.8,0.9-1.8,2.3c0,1.5,0.6,2,2,2.3c1.2,0.2,2.8,0.4,3.4,1.2
		c1.1,1.7,2,3.8,2.4,5.8c0.2,0.9-0.9,2.2-1.6,3.2c-0.8,1.2-0.9,2,0.2,3.2c1.2,1.2,2.1,1.1,3.4,0.2c0.9-0.7,2.2-1.7,3-1.5
		c2,0.4,4.1,1.3,5.8,2.4c0.8,0.5,0.9,2.2,1.2,3.4c0.3,1.2,0.4,2.2,2.1,2.2c1.6,0,2.3-0.5,2.7-2.1c0.3-1.3,0.7-3.3,1.7-3.7
		c2.9-1.4,5.7-3.6,8.4-1c0.3,0.3,1.8,1.4,3.6-0.4c1.6-1.6,0.8-3-0.1-4c-2.7-3.1-0.5-8.9,2.3-8.8c2.8,0.1,3.8-0.4,3.8-2.8
		C57.5,32.5,55.1,32.8,54,32.4"/>
	<path clip-path="url(#SVGID_2_)" fill="#91C961" d="M67.8,35.5c0-17.8-14.4-32.3-32.3-32.3S3.2,17.7,3.2,35.5s14.4,32.3,32.3,32.3
		S67.8,53.3,67.8,35.5 M0,35.5C0,15.9,15.9,0,35.5,0S71,15.9,71,35.5S55.1,71,35.5,71S0,55.1,0,35.5"/>
</g>
</svg>
